<?xml version="1.0" encoding="UTF-8"?>
<svg version="1.1" xmlns="http://www.w3.org/2000/svg" width="407" height="57">
<path d="M0 0 C1.33446749 0.08845902 2.66807427 0.19165996 4 0.3125 C5.64650072 0.3125 7.29531906 0.29106555 8.9375 0.171875 C14.42990654 -0.11938898 14.42990654 -0.11938898 17.0625 1.875 C18.44782757 5.47685169 18.007459 7.59749494 17 11.3125 C15.49936652 13.84143642 13.83986884 16.00086992 12 18.3125 C12.4125 17.879375 12.825 17.44625 13.25 17 C16.40314923 13.95946324 18.74597097 11.87099748 23.25 11.6875 C27 12.3125 27 12.3125 29.0625 13.75 C30.2865241 17.09566586 29.79927412 19.53084602 29.24609375 23.00390625 C28.86286976 25.56373473 28.86286976 25.56373473 29.6875 29.0625 C30 32.3125 30 32.3125 28.5 35.3125 C26 37.3125 26 37.3125 22.75 37.5 C17.99759527 35.99507184 14.76434926 33.50975249 11 30.3125 C11.42152344 30.73660156 11.84304687 31.16070312 12.27734375 31.59765625 C15.15271321 34.67599296 16.8573936 36.85299048 18.125 40.9375 C18 44.3125 18 44.3125 16.4375 47.25 C14 49.3125 14 49.3125 10.9375 49.75 C8 49.3125 8 49.3125 5 47.3125 C4.34 47.9725 3.68 48.6325 3 49.3125 C0.125 49.75 0.125 49.75 -3 49.3125 C-5.4375 47.25 -5.4375 47.25 -7 44.3125 C-7.24462563 37.82992092 -3.99854342 34.02026519 0 29.3125 C-0.56847656 29.90160156 -1.13695313 30.49070312 -1.72265625 31.09765625 C-8.06139917 37.26708383 -8.06139917 37.26708383 -12.875 37.5 C-17.65675446 35.68293331 -17.65675446 35.68293331 -19 33.3125 C-19.43076923 27.17403846 -19.43076923 27.17403846 -18 24.3125 C-18.33 23.6525 -18.66 22.9925 -19 22.3125 C-19.2805537 19.0861324 -19.26789202 16.91131746 -17.9375 13.9375 C-16 12.3125 -16 12.3125 -12.875 11.625 C-7.36318833 12.60290207 -4.1105452 15.65868205 0 19.3125 C-0.42152344 18.88839844 -0.84304687 18.46429687 -1.27734375 18.02734375 C-5.07216892 13.96464857 -7.10761154 11.12352321 -7 5.3125 C-5.63906423 1.04823459 -4.32433058 0.01592755 0 0 Z " fill="#14ACAB" transform="translate(20,4.6875)"/>
<path d="M0 0 C4.29 0 8.58 0 13 0 C15.93937169 5.57467045 18.11994266 10.98381653 20 17 C20.33 11.39 20.66 5.78 21 0 C24.96 0 28.92 0 33 0 C32.67 15.84 32.34 31.68 32 48 C27.71 48 23.42 48 19 48 C16.36 40.74 13.72 33.48 11 26 C10.67 33.26 10.34 40.52 10 48 C5.71 48 1.42 48 -3 48 C-2.48843659 31.93960132 -1.54976667 15.99419384 0 0 Z " fill="#15ACAB" transform="translate(228,3)"/>
<path d="M0 0 C3.96 0 7.92 0 12 0 C14.95534402 4.8916039 17.1074692 9.60628722 19 15 C19.66 10.05 20.32 5.1 21 0 C24.63 0 28.26 0 32 0 C33.10669713 3.3200914 32.93455123 5.17732917 32.59765625 8.63671875 C31.90096862 16.69168017 31.66122076 24.73389783 31.4375 32.8125 C31.39416168 34.29493013 31.35054344 35.7773521 31.30664062 37.25976562 C31.2012123 40.83975588 31.09952889 44.41984029 31 48 C27.04 48 23.08 48 19 48 C15.78088537 40.39931269 12.74313939 32.78499895 10 25 C10.00523682 25.59014893 10.01047363 26.18029785 10.01586914 26.78833008 C10.03666047 29.46304255 10.04966701 32.13773801 10.0625 34.8125 C10.07087891 35.74126953 10.07925781 36.67003906 10.08789062 37.62695312 C10.09111328 38.51962891 10.09433594 39.41230469 10.09765625 40.33203125 C10.10289307 41.15421143 10.10812988 41.9763916 10.11352539 42.82348633 C10 45 10 45 9 48 C5.04 48 1.08 48 -3 48 C-3.20886037 36.75635028 -3.05674573 25.64560526 -2.0625 14.4375 C-1.97564941 13.4570874 -1.88879883 12.4766748 -1.79931641 11.46655273 C-1.42303797 7.50241415 -0.96944396 3.87777583 0 0 Z " fill="#17ACAB" transform="translate(117,3)"/>
<path d="M0 0 C0 3.96 0 7.92 0 12 C-1.27617187 12.13277344 -2.55234375 12.26554688 -3.8671875 12.40234375 C-5.53647996 12.58052665 -7.20574964 12.75892314 -8.875 12.9375 C-9.71675781 13.02451172 -10.55851562 13.11152344 -11.42578125 13.20117188 C-12.63427734 13.33168945 -12.63427734 13.33168945 -13.8671875 13.46484375 C-14.61081543 13.543396 -15.35444336 13.62194824 -16.12060547 13.70288086 C-18.08446316 13.91637347 -18.08446316 13.91637347 -20 15 C-20 15.99 -20 16.98 -20 18 C-15.05 18 -10.1 18 -5 18 C-5 21.63 -5 25.26 -5 29 C-6.91595482 29.33740085 -8.83279722 29.66976412 -10.75 30 C-11.81734375 30.185625 -12.8846875 30.37125 -13.984375 30.5625 C-17 31 -17 31 -21 31 C-21 32.65 -21 34.3 -21 36 C-20.14450562 35.99214478 -20.14450562 35.99214478 -19.27172852 35.98413086 C-16.70199677 35.96341779 -14.13228253 35.9503581 -11.5625 35.9375 C-10.66466797 35.92912109 -9.76683594 35.92074219 -8.84179688 35.91210938 C-7.98779297 35.90888672 -7.13378906 35.90566406 -6.25390625 35.90234375 C-5.46314697 35.89710693 -4.6723877 35.89187012 -3.85766602 35.88647461 C-2 36 -2 36 -1 37 C-0.90176063 38.66429051 -0.87026369 40.33281931 -0.875 42 C-0.87113281 43.36125 -0.87113281 43.36125 -0.8671875 44.75 C-1 47 -1 47 -2 48 C-12.57233241 49.47140709 -23.35587635 49.10115851 -34 49 C-34.21431374 37.01033702 -34.02333354 25.14598231 -33.0625 13.1875 C-32.97564941 12.09058838 -32.88879883 10.99367676 -32.79931641 9.86352539 C-32.13437738 2.13437738 -32.13437738 2.13437738 -31 1 C-29.21873379 0.841895 -27.43160945 0.74884699 -25.64453125 0.68359375 C-23.99807617 0.62075195 -23.99807617 0.62075195 -22.31835938 0.55664062 C-21.16142578 0.51732422 -20.00449219 0.47800781 -18.8125 0.4375 C-17.67490234 0.39431641 -16.53730469 0.35113281 -15.36523438 0.30664062 C-10.2355912 0.11798475 -5.13514291 0 0 0 Z " fill="#16ACAB" transform="translate(335,2)"/>
<path d="M0 0 C3.3125 1.9375 3.3125 1.9375 5 5 C6.03078313 9.2961837 6.40684063 12.7794781 5 17 C1.37 17 -2.26 17 -6 17 C-6 14.36 -6 11.72 -6 9 C-6.99 9 -7.98 9 -9 9 C-9.49127267 12.30253179 -9.49127267 12.30253179 -9 16 C-6.4729541 18.64829693 -6.4729541 18.64829693 -3.125 20.6875 C3.85476056 25.3324234 3.85476056 25.3324234 5 29 C5.57358744 33.58125035 5.58194407 37.69755375 3.6875 41.9375 C-0.25 46.75 -0.25 46.75 -4 48 C-12.24859416 48.69690338 -18.77713818 48.18067454 -26 44 C-25.5205537 39.78087253 -24.83374881 37.20336822 -22 34 C-21.154375 34.309375 -20.30875 34.61875 -19.4375 34.9375 C-15.9502146 36.01538821 -12.61822465 36.56581304 -9 37 C-9.08175384 34.61525617 -9.08175384 34.61525617 -10 32 C-12.43807537 29.98513612 -12.43807537 29.98513612 -15.4375 28.375 C-20.81651376 25.27522936 -20.81651376 25.27522936 -23 22 C-24.55668622 16.01274532 -23.68431825 11.45028877 -21 6 C-14.92021609 -1.11779579 -9.02426551 -0.8878039 0 0 Z " fill="#1DAFAE" transform="translate(363,3)"/>
<path d="M0 0 C1.6510403 0.39553053 3.2958515 0.81713897 4.9375 1.25 C5.85402344 1.48203125 6.77054687 1.7140625 7.71484375 1.953125 C10 3 10 3 10.7668457 4.61181641 C11.10443774 8.06974865 10.0573339 11.00468541 9.015625 14.2578125 C8.79936462 14.96090546 8.58310425 15.66399841 8.36029053 16.38839722 C7.66633983 18.63700035 6.95849741 20.88094289 6.25 23.125 C5.78812278 24.61168754 5.32717562 26.09866438 4.8671875 27.5859375 C3.98315411 30.44059892 3.0943081 33.29368193 2.20117188 36.14550781 C0.76116456 40.7520011 -0.62578377 45.37347203 -2 50 C-6.62 50 -11.24 50 -16 50 C-17.2867685 43.80799696 -18.56837789 37.61495708 -19.84521484 31.42089844 C-20.28032003 29.31383424 -20.71683439 27.20706052 -21.15478516 25.10058594 C-21.78398268 22.07301871 -22.40810767 19.04444354 -23.03125 16.015625 C-23.22811401 15.07382385 -23.42497803 14.13202271 -23.62780762 13.16168213 C-23.80799438 12.28107117 -23.98818115 11.40046021 -24.17382812 10.49316406 C-24.33371216 9.72039124 -24.49359619 8.94761841 -24.6583252 8.15142822 C-25 6 -25 6 -25 2 C-21.37 2 -17.74 2 -14 2 C-11.11319592 10.13553876 -8.54048683 18.26924985 -9 27 C-8.34 27 -7.68 27 -7 27 C-6.89816406 25.71222656 -6.79632813 24.42445312 -6.69140625 23.09765625 C-6.11801713 17.93715414 -4.66727214 13.3137718 -2.9375 8.4375 C-2.65583984 7.61958984 -2.37417969 6.80167969 -2.08398438 5.95898438 C-1.39764559 3.96976517 -0.7000155 1.9844476 0 0 Z " fill="#17ADAC" transform="translate(288,1)"/>
<path d="M0 0 C0.94140625 2.0390625 0.94140625 2.0390625 1.5625 4.625 C2.70352999 8.98849931 4.1287993 12.90117941 6 17 C6.33773437 16.02417969 6.67546875 15.04835938 7.0234375 14.04296875 C7.47373825 12.75773537 7.92427126 11.47258335 8.375 10.1875 C8.70757812 9.22360352 8.70757812 9.22360352 9.046875 8.24023438 C10.1239885 5.18313283 11.19061861 2.71407209 13 0 C15.3828125 -0.29296875 15.3828125 -0.29296875 18.125 -0.1875 C19.03507812 -0.16042969 19.94515625 -0.13335937 20.8828125 -0.10546875 C21.58148438 -0.07066406 22.28015625 -0.03585938 23 0 C24.13037256 3.31266471 23.91622693 4.95714507 22.48828125 8.125 C22.14418213 8.90794434 21.80008301 9.69088867 21.44555664 10.49755859 C21.07164795 11.32336426 20.69773926 12.14916992 20.3125 13 C19.56487984 14.72012758 18.82007676 16.44148235 18.078125 18.1640625 C17.71783203 18.99711914 17.35753906 19.83017578 16.98632812 20.68847656 C13.04833747 29.9174111 11.43653235 37.95975593 11 48 C6.71 48 2.42 48 -2 48 C-1.79375 46.1025 -1.5875 44.205 -1.375 42.25 C-0.89060183 32.46492565 -5.04923899 23.41224026 -8.53076172 14.46191406 C-8.98596191 13.28338867 -9.44116211 12.10486328 -9.91015625 10.890625 C-10.33433838 9.82875977 -10.75852051 8.76689453 -11.19555664 7.67285156 C-12 5 -12 5 -11 2 C-3.83920477 -1.78306163 -3.83920477 -1.78306163 0 0 Z " fill="#1FB0AF" transform="translate(163,3)"/>
<path d="M0 0 C0 3.63 0 7.26 0 11 C-3.63 11 -7.26 11 -11 11 C-10.98839844 12.58167969 -10.97679687 14.16335937 -10.96484375 15.79296875 C-10.91012604 26.59287771 -10.92456612 37.24566121 -12 48 C-15.96 48 -19.92 48 -24 48 C-25.24558974 40.61872749 -24.90502834 33.45688144 -24.5625 26 C-24.51029297 24.74832031 -24.45808594 23.49664063 -24.40429688 22.20703125 C-24.27543258 19.13771802 -24.14050459 16.06879871 -24 13 C-24.71027344 13.08378906 -25.42054688 13.16757812 -26.15234375 13.25390625 C-27.07144531 13.35574219 -27.99054688 13.45757812 -28.9375 13.5625 C-30.31228516 13.71912109 -30.31228516 13.71912109 -31.71484375 13.87890625 C-32.46894531 13.91886719 -33.22304688 13.95882813 -34 14 C-34.33 13.67 -34.66 13.34 -35 13 C-34.90982004 10.80949979 -34.75333792 8.621534 -34.5625 6.4375 C-34.46066406 5.23996094 -34.35882813 4.04242188 -34.25390625 2.80859375 C-34.17011719 1.88175781 -34.08632813 0.95492188 -34 0 C-29.80103014 -0.168035 -25.60185961 -0.32854866 -21.40234375 -0.48217773 C-19.97453122 -0.53546157 -18.54679306 -0.59077975 -17.11914062 -0.64819336 C-15.06396518 -0.73048625 -13.00863107 -0.80539678 -10.953125 -0.87890625 C-9.71723633 -0.9260376 -8.48134766 -0.97316895 -7.20800781 -1.02172852 C-4 -1 -4 -1 0 0 Z " fill="#16ACAB" transform="translate(405,3)"/>
<path d="M0 0 C11.22 0 22.44 0 34 0 C35.04973814 4.19895255 34.72795155 6.79405774 34 11 C30.7 11 27.4 11 24 11 C23.67 23.21 23.34 35.42 23 48 C18.71 48 14.42 48 10 48 C9.84869284 35.96267515 10.31055478 24.01604528 11 12 C10.113125 12.33 9.22625 12.66 8.3125 13 C5 14 5 14 0 14 C0 9.38 0 4.76 0 0 Z " fill="#14ACAB" transform="translate(62,3)"/>
<path d="M0 0 C3.96 0 7.92 0 12 0 C12.04566813 9.30324999 11.88559328 18.5776291 11.5625 27.875 C11.52318359 29.14085938 11.48386719 30.40671875 11.44335938 31.7109375 C11.24431396 37.54143708 11.02106492 43.2511471 10 49 C8.02090602 49.02686553 6.04171029 49.04633375 4.0625 49.0625 C2.96035156 49.07410156 1.85820313 49.08570313 0.72265625 49.09765625 C-2 49 -2 49 -3 48 C-3.04187837 44.88149582 -3.01957062 41.78851574 -2.94921875 38.671875 C-2.9303511 37.73071838 -2.91148346 36.78956177 -2.89204407 35.81988525 C-2.85006911 33.82241079 -2.80532281 31.82499298 -2.75805664 29.82763672 C-2.68812204 26.77713306 -2.63363176 23.72661077 -2.58007812 20.67578125 C-2.5374075 18.73695804 -2.49381726 16.79815482 -2.44921875 14.859375 C-2.43453049 13.94774597 -2.41984222 13.03611694 -2.40470886 12.09686279 C-2.38161148 11.23957581 -2.3585141 10.38228882 -2.3347168 9.49902344 C-2.31837692 8.74925232 -2.30203705 7.9994812 -2.28520203 7.22698975 C-2 5 -2 5 0 0 Z " fill="#12ABAA" transform="translate(101,2)"/>
<path d="M0 0 C4.29 0 8.58 0 13 0 C12.34 16.17 11.68 32.34 11 49 C6.71 49 2.42 49 -2 49 C-2.38297872 15.5106383 -2.38297872 15.5106383 0 0 Z " fill="#16ACAB" transform="translate(212,2)"/>
<path d="M0 0 C5.28 0 10.56 0 16 0 C16 3.63 16 7.26 16 11 C14.08404518 11.33740085 12.16720278 11.66976412 10.25 12 C8.64898437 12.2784375 8.64898437 12.2784375 7.015625 12.5625 C4 13 4 13 0 13 C0 14.65 0 16.3 0 18 C1.98 18 3.96 18 6 18 C6 18.33 6 18.66 6 19 C3.69 19 1.38 19 -1 19 C-3.28391553 14.58442998 -4.31658474 11.90727041 -3 7 C-2.36525925 5.65117592 -1.70151152 4.3153341 -1 3 C-0.67 2.01 -0.34 1.02 0 0 Z " fill="#20AFAF" transform="translate(314,20)"/>
<path d="M0 0 C1.98 0 3.96 0 6 0 C5.01 0.33 4.02 0.66 3 1 C1.96487045 4.10538864 1.72181022 6.65058581 1.5 9.91015625 C1.4175 11.06451172 1.335 12.21886719 1.25 13.40820312 C1.08306734 15.84828911 0.91640152 18.28839336 0.75 20.72851562 C0.6675 21.88158203 0.585 23.03464844 0.5 24.22265625 C0.4278125 25.28234619 0.355625 26.34203613 0.28125 27.43383789 C0 30 0 30 -1 32 C-1.23172827 34.54615009 -1.41894529 37.07396225 -1.5625 39.625 C-1.60568359 40.33140625 -1.64886719 41.0378125 -1.69335938 41.765625 C-1.79944751 43.51018537 -1.90022889 45.25506697 -2 47 C-2.33 47 -2.66 47 -3 47 C-3.02507213 42.80485403 -3.04303239 38.60974994 -3.05493164 34.41455078 C-3.05990212 32.99299356 -3.06668084 31.57144128 -3.07543945 30.14990234 C-3.22265179 5.60874017 -3.22265179 5.60874017 0 0 Z " fill="#77CECE" transform="translate(213,4)"/>
<path d="M0 0 C1.65 0.33 3.3 0.66 5 1 C4.87882812 1.71800781 4.75765625 2.43601562 4.6328125 3.17578125 C3.02925759 13.08081655 1.990831 23.01790467 1 33 C0.67 33 0.34 33 0 33 C-0.92968419 26.71356405 -1.15179318 20.59998278 -1.125 14.25 C-1.12886719 13.31800781 -1.13273437 12.38601563 -1.13671875 11.42578125 C-1.13542969 10.52730469 -1.13414063 9.62882813 -1.1328125 8.703125 C-1.13168457 7.89520508 -1.13055664 7.08728516 -1.12939453 6.25488281 C-1.00266569 4.04645347 -0.61123335 2.1208037 0 0 Z " fill="#5AC4C4" transform="translate(100,3)"/>
<path d="M0 0 C0.33 0 0.66 0 1 0 C1 8.25 1 16.5 1 25 C-0.32 24.67 -1.64 24.34 -3 24 C-3 21.69 -3 19.38 -3 17 C-3.33 17.66 -3.66 18.32 -4 19 C-4.66 19 -5.32 19 -6 19 C-6 15 -6 15 -5 14 C-5 13.34 -5 12.68 -5 12 C-4.34 12 -3.68 12 -3 12 C-3 10.35 -3 8.7 -3 7 C-2.34 6.67 -1.68 6.34 -1 6 C-0.34227572 2.97065509 -0.34227572 2.97065509 0 0 Z " fill="#3DBABA" transform="translate(111,24)"/>
<path d="M0 0 C0.33 0 0.66 0 1 0 C1.33 5.28 1.66 10.56 2 16 C4.475 16.99 4.475 16.99 7 18 C7 18.66 7 19.32 7 20 C10.96 20.33 14.92 20.66 19 21 C19 21.33 19 21.66 19 22 C12.73 22 6.46 22 0 22 C0 14.74 0 7.48 0 0 Z " fill="#5EC6C5" transform="translate(301,29)"/>
<path d="M0 0 C2.39485693 3.5922854 2.17558429 4.96005459 1.9765625 9.19921875 C1.89921875 11.01196289 1.89921875 11.01196289 1.8203125 12.86132812 C1.75585938 14.12396484 1.69140625 15.38660156 1.625 16.6875 C1.56828125 17.96173828 1.5115625 19.23597656 1.453125 20.54882812 C1.31150935 23.69977629 1.16008115 26.84994472 1 30 C0.67 30 0.34 30 0 30 C-0.33 23.07 -0.66 16.14 -1 9 C-1.99 10.485 -1.99 10.485 -3 12 C-3.66 12 -4.32 12 -5 12 C-4.01 9.03 -3.02 6.06 -2 3 C-1.34 3 -0.68 3 0 3 C0 2.01 0 1.02 0 0 Z " fill="#34B7B6" transform="translate(237,21)"/>
<path d="M0 0 C0.66 0 1.32 0 2 0 C2.19441368 2.2910905 2.38033135 4.58290337 2.5625 6.875 C2.66691406 8.15117187 2.77132812 9.42734375 2.87890625 10.7421875 C3 14 3 14 2 16 C1.76827173 18.54615009 1.58105471 21.07396225 1.4375 23.625 C1.39431641 24.33140625 1.35113281 25.0378125 1.30664062 25.765625 C1.20055249 27.51018537 1.09977111 29.25506697 1 31 C0.67 31 0.34 31 0 31 C0 20.77 0 10.54 0 0 Z " fill="#58C4C3" transform="translate(210,20)"/>
<path d="M0 0 C1.33333333 0.66666667 2.66666667 1.33333333 4 2 C4 6.62 4 11.24 4 16 C3.01 16 2.02 16 1 16 C0.67 13.36 0.34 10.72 0 8 C0.66 7.67 1.32 7.34 2 7 C1.484375 6.5875 0.96875 6.175 0.4375 5.75 C-0.036875 5.1725 -0.51125 4.595 -1 4 C-0.6875 1.8125 -0.6875 1.8125 0 0 Z " fill="#47BDBD" transform="translate(219,32)"/>
<path d="M0 0 C-0.33 0.99 -0.66 1.98 -1 3 C-0.34 3 0.32 3 1 3 C1 3.66 1 4.32 1 5 C-0.98 5.66 -2.96 6.32 -5 7 C-5.66 4.69 -6.32 2.38 -7 0 C-3.86650268 -1.04449911 -3.01031744 -0.93423645 0 0 Z " fill="#3BBABA" transform="translate(138,37)"/>
<path d="M0 0 C0.66 0.66 1.32 1.32 2 2 C2.639375 1.814375 3.27875 1.62875 3.9375 1.4375 C4.9584375 1.2209375 4.9584375 1.2209375 6 1 C7.75 2.4375 7.75 2.4375 9 4 C7.8125 5.5 7.8125 5.5 6 7 C3.375 7.25 3.375 7.25 1 7 C0 6 0 6 -0.0625 2.9375 C-0.041875 1.968125 -0.02125 0.99875 0 0 Z " fill="#44BDBC" transform="translate(370,10)"/>
<path d="M0 0 C0.99 0 1.98 0 3 0 C3 3.63 3 7.26 3 11 C2.34 11 1.68 11 1 11 C1 12.65 1 14.3 1 16 C0.67 16 0.34 16 0 16 C0 10.72 0 5.44 0 0 Z " fill="#83D3D2" transform="translate(72,35)"/>
<path d="M0 0 C2.31 0 4.62 0 7 0 C7.625 1.8125 7.625 1.8125 8 4 C7.01 5.485 7.01 5.485 6 7 C5.38125 6.2884375 5.38125 6.2884375 4.75 5.5625 C2.817815 3.83733482 1.51807725 3.43415125 -1 3 C-0.67 2.01 -0.34 1.02 0 0 Z " fill="#71CDCC" transform="translate(179,3)"/>
<path d="M0 0 C1.65 0.33 3.3 0.66 5 1 C4.01 3.31 3.02 5.62 2 8 C1.67 8 1.34 8 1 8 C0.67 10.31 0.34 12.62 0 15 C-0.33 15 -0.66 15 -1 15 C-1.02715383 13.25008666 -1.04646551 11.50005055 -1.0625 9.75 C-1.07410156 8.77546875 -1.08570312 7.8009375 -1.09765625 6.796875 C-1.01195577 4.34241322 -0.70706066 2.33831086 0 0 Z " fill="#C8ECEB" transform="translate(100,3)"/>
<path d="M0 0 C0.66 0.33 1.32 0.66 2 1 C2 1.99 2 2.98 2 4 C3.32 4.33 4.64 4.66 6 5 C4.68 5 3.36 5 2 5 C2 6.65 2 8.3 2 10 C3.98 10 5.96 10 8 10 C8 10.33 8 10.66 8 11 C5.69 11 3.38 11 1 11 C0 9 -1 7 -2 5 C-1.0625 2.375 -1.0625 2.375 0 0 Z " fill="#65C8C7" transform="translate(312,28)"/>
<path d="M0 0 C0.66 0 1.32 0 2 0 C2 1.32 2 2.64 2 4 C2.66 4 3.32 4 4 4 C4 4.66 4 5.32 4 6 C3.360625 6.103125 2.72125 6.20625 2.0625 6.3125 C1.381875 6.539375 0.70125 6.76625 0 7 C-0.33 7.99 -0.66 8.98 -1 10 C-1.66 7.69 -2.32 5.38 -3 3 C-2.34 3 -1.68 3 -1 3 C-0.67 2.01 -0.34 1.02 0 0 Z " fill="#41BCBB" transform="translate(246,36)"/>
<path d="M0 0 C3.96 0 7.92 0 12 0 C12 0.33 12 0.66 12 1 C10.35 1 8.7 1 7 1 C7 1.66 7 2.32 7 3 C5.1875 3.625 5.1875 3.625 3 4 C2.01 3.34 1.02 2.68 0 2 C0 1.34 0 0.68 0 0 Z " fill="#53C2C1" transform="translate(101,2)"/>
<path d="M0 0 C1.98 0 3.96 0 6 0 C5.01 0.33 4.02 0.66 3 1 C2.34 4.96 1.68 8.92 1 13 C0.67 13 0.34 13 0 13 C0 8.71 0 4.42 0 0 Z " fill="#BCE7E7" transform="translate(213,4)"/>
<path d="M0 0 C0.33 0 0.66 0 1 0 C1 3.3 1 6.6 1 10 C0.01 10.33 -0.98 10.66 -2 11 C-1.85892253 9.54119891 -1.71197585 8.08296449 -1.5625 6.625 C-1.48128906 5.81289063 -1.40007812 5.00078125 -1.31640625 4.1640625 C-1 2 -1 2 0 0 Z " fill="#8BD5D5" transform="translate(382,36)"/>
<path d="M0 0 C1.65 0.33 3.3 0.66 5 1 C4.01 1.495 4.01 1.495 3 2 C2.34786708 4.02463255 2.34786708 4.02463255 2 6 C0.68 6.33 -0.64 6.66 -2 7 C-1.34 4.69 -0.68 2.38 0 0 Z " fill="#84D3D3" transform="translate(288,1)"/>
<path d="M0 0 C1.9451 2.91765 2.45276317 4.62537285 3 8 C1.68 8 0.36 8 -1 8 C-1.33 5.69 -1.66 3.38 -2 1 C-1.34 0.67 -0.68 0.34 0 0 Z " fill="#55C4C3" transform="translate(271,33)"/>
<path d="M0 0 C1.32 0.33 2.64 0.66 4 1 C4.33 2.65 4.66 4.3 5 6 C4.01 6.33 3.02 6.66 2 7 C1.34 4.69 0.68 2.38 0 0 Z " fill="#34B8B8" transform="translate(240,31)"/>
<path d="M0 0 C0.66 1.32 1.32 2.64 2 4 C0.68 4.99 -0.64 5.98 -2 7 C-2.33 5.02 -2.66 3.04 -3 1 C-2.01 0.67 -1.02 0.34 0 0 Z " fill="#35B7B6" transform="translate(132,30)"/>
<path d="M0 0 C1.04449911 3.13349732 0.93423645 3.98968256 0 7 C-0.99 6.67 -1.98 6.34 -3 6 C-2.625 3.5625 -2.625 3.5625 -2 1 C-1.34 0.67 -0.68 0.34 0 0 Z " fill="#6ACACA" transform="translate(111,42)"/>
<path d="M0 0 C1.65 0.33 3.3 0.66 5 1 C5 1.66 5 2.32 5 3 C3.02 3.66 1.04 4.32 -1 5 C-0.67 3.35 -0.34 1.7 0 0 Z " fill="#2CB4B3" transform="translate(134,39)"/>
</svg>
